<svg xmlns="http://www.w3.org/2000/svg" viewBox="0 0 512 512" role="img" aria-label="Afghan Care and School">
  <defs>
    <linearGradient id="g" x1="0" y1="0" x2="1" y2="1">
      <stop offset="0" stop-color="#0b4d8c"/>
      <stop offset="1" stop-color="#14b8a6"/>
    </linearGradient>
  </defs>
  <rect width="512" height="512" rx="112" fill="url(#g)"/>
  <g fill="none" stroke="#ffffff" stroke-width="26" stroke-linecap="round" stroke-linejoin="round">
    <path d="M112 168h288v208a24 24 0 0 1-24 24H136a24 24 0 0 1-24-24z"/>
    <path d="M256 168v240"/>
    <path d="M144 168l16-44a16 16 0 0 1 15-11h178a16 16 0 0 1 15 11l16 44"/>
  </g>
  <g fill="#ffd166">
    <circle cx="196" cy="256" r="14"/>
    <circle cx="316" cy="256" r="14"/>
  </g>
  <path d="M256 300c-14 18-34 26-52 22 4 24 24 40 52 40s48-16 52-40c-18 4-38-4-52-22z" fill="#ffffff" opacity="0.9"/>
  <path d="M330 96h34v34h34v34h-34v34h-34v-34h-34v-34h34z" fill="#ffd166"/>
</svg>
